<svg width="24" height="24" viewBox="0 0 24 24" fill="none" xmlns="http://www.w3.org/2000/svg">
<path fill-rule="evenodd" clip-rule="evenodd" d="M8.70757 7.29292C8.51897 7.11076 8.26637 7.00997 8.00417 7.01224C7.74197 7.01452 7.49116 7.11969 7.30575 7.3051C7.12034 7.49051 7.01517 7.74132 7.0129 8.00352C7.01062 8.26572 7.11141 8.51832 7.29357 8.70692L10.5866 11.9999L7.29357 15.2929C7.19806 15.3852 7.12188 15.4955 7.06947 15.6175C7.01706 15.7395 6.98947 15.8707 6.98832 16.0035C6.98717 16.1363 7.01247 16.268 7.06275 16.3909C7.11303 16.5138 7.18728 16.6254 7.28117 16.7193C7.37507 16.8132 7.48672 16.8875 7.60962 16.9377C7.73251 16.988 7.86419 17.0133 7.99697 17.0122C8.12975 17.011 8.26097 16.9834 8.38297 16.931C8.50498 16.8786 8.61532 16.8024 8.70757 16.7069L12.0006 13.4139L15.2936 16.7069C15.4822 16.8891 15.7348 16.9899 15.997 16.9876C16.2592 16.9853 16.51 16.8801 16.6954 16.6947C16.8808 16.5093 16.986 16.2585 16.9882 15.9963C16.9905 15.7341 16.8897 15.4815 16.7076 15.2929L13.4146 11.9999L16.7076 8.70692C16.8897 8.51832 16.9905 8.26572 16.9882 8.00352C16.986 7.74132 16.8808 7.49051 16.6954 7.3051C16.51 7.11969 16.2592 7.01452 15.997 7.01224C15.7348 7.00997 15.4822 7.11076 15.2936 7.29292L12.0006 10.5859L8.70757 7.29292Z" fill="#F1F0EB"/>
</svg>
