<svg width="32" height="32" viewBox="0 0 32 32" fill="none" xmlns="http://www.w3.org/2000/svg">
<path fill-rule="evenodd" clip-rule="evenodd" d="M17 10.4999C17 10.1005 17.4451 9.86232 17.7774 10.0838L23.7773 14.0838C24.0742 14.2817 24.0742 14.718 23.7774 14.9159L17.7774 18.9159C17.4451 19.1374 17 18.8992 17 18.4999V16.9999H16C12.134 16.9999 9 20.1339 9 23.9999H8V21.4999C8 16.4209 11.9857 12.2728 17 12.0128V10.4999ZM18 11.4341V12.9999H17.5C13.3708 12.9999 9.92932 15.9442 9.16043 19.8479C10.564 17.5407 13.102 15.9999 16 15.9999H18V17.5656L22.5986 14.4999L18 11.4341Z" fill="#000624"/>
</svg>
