<svg width="18" height="20" viewBox="0 0 18 20" fill="none" xmlns="http://www.w3.org/2000/svg">
<path fill-rule="evenodd" clip-rule="evenodd" d="M17 0H2V2H14.1492L11.3753 4.21913C11.1381 4.4089 11 4.69622 11 5V16H2V18H11V19C11 19.3844 11.2203 19.7348 11.5668 19.9013C11.9133 20.0678 12.3245 20.021 12.6247 19.7809L17.6247 15.7809C17.8619 15.5911 18 15.3038 18 15V1C18 0.447715 17.5523 0 17 0ZM13 5.48062L16 3.08062V14.5194L13 16.9194V5.48062Z" fill="#674EAE"/>
<path d="M8.70711 9.70706C8.89464 9.51952 9 9.26517 9 8.99995C9 8.73474 8.89464 8.48038 8.70711 8.29285L4.70711 4.29285L3.29289 5.70706L5.58579 7.99995L0 8V10L5.58579 9.99995L3.29289 12.2928L4.70711 13.7071L8.70711 9.70706Z" fill="#674EAE"/>
</svg>
