<svg width="21" height="19" viewBox="0 0 21 19" fill="none" xmlns="http://www.w3.org/2000/svg">
<path fill-rule="evenodd" clip-rule="evenodd" d="M13.902 12.9648C14.0243 12.8771 14.0243 12.8771 14.2391 12.7235C14.4344 12.5836 14.4344 12.5836 14.5553 12.497C14.8185 12.3079 15.0224 12.1593 15.2146 12.0163C17.8312 10.0703 18.759 8.7133 18.759 6.99603C18.759 3.46967 14.5638 1.65886 12.0757 4.01432L10.6999 5.31679L9.3246 4.01377C6.83526 1.65527 2.64136 3.4778 2.64136 7.02902C2.64136 8.7104 3.51279 9.98695 6.11334 11.9434C6.22292 12.0259 6.44425 12.1895 6.75803 12.4204L6.76251 12.4237C6.88411 12.5133 7.46898 12.9429 7.51378 12.9763C8.7572 13.9022 9.8159 14.7879 10.6881 15.635C11.5596 14.7669 12.6315 13.8778 13.902 12.9648ZM20.759 6.99603C20.759 9.59682 19.3001 11.4697 16.4084 13.6202C16.2006 13.7748 15.9855 13.9314 15.7226 14.1203C15.5992 14.2089 15.1602 14.5228 15.0686 14.5886C13.5465 15.6824 12.3544 16.7196 11.4934 17.6929L10.7188 18.5687L9.9237 17.7114C9.0331 16.7512 7.83075 15.7052 6.31895 14.5794C6.20127 14.4919 5.21278 13.768 4.9106 13.5407C2.03953 11.3807 0.641357 9.59072 0.641357 7.02902C0.641357 1.68001 6.96724 -0.974186 10.7004 2.56283C14.4313 -0.969148 20.759 1.67062 20.759 6.99603Z" fill="#181818"/>
</svg>
