<svg width="22" height="19" viewBox="0 0 22 19" fill="none" xmlns="http://www.w3.org/2000/svg">
<path fill-rule="evenodd" clip-rule="evenodd" d="M14.2018 12.9648C14.3241 12.8772 14.3241 12.8772 14.5389 12.7235C14.7342 12.5837 14.7342 12.5837 14.8551 12.497C15.1183 12.3079 15.3222 12.1594 15.5144 12.0163C18.131 10.0704 19.0588 8.71336 19.0588 6.99609C19.0588 3.46973 14.8636 1.65892 12.3755 4.01438L10.9997 5.31685L9.6244 4.01383C7.13506 1.65533 2.94116 3.47786 2.94116 7.02908C2.94116 8.71046 3.81259 9.98701 6.41314 11.9435C6.52272 12.0259 6.74405 12.1896 7.05783 12.4205L7.06231 12.4238C7.18391 12.5133 7.76878 12.9429 7.81358 12.9763C9.057 13.9022 10.1157 14.788 10.9879 15.6351C11.8594 14.767 12.9313 13.8778 14.2018 12.9648ZM21.0588 6.99609C21.0588 9.59688 19.5999 11.4698 16.7082 13.6203C16.5004 13.7749 16.2853 13.9314 16.0224 14.1203C15.899 14.209 15.46 14.5229 15.3684 14.5886C13.8463 15.6825 12.6542 16.7196 11.7932 17.693L11.0186 18.5687L10.2235 17.7115C9.3329 16.7512 8.13055 15.7053 6.61875 14.5794C6.50107 14.492 5.51258 13.7681 5.2104 13.5408C2.33933 11.3807 0.941162 9.59078 0.941162 7.02908C0.941162 1.68007 7.26704 -0.974125 11.0002 2.56289C14.7311 -0.969087 21.0588 1.67068 21.0588 6.99609Z" fill="white" fill-opacity="0.2"/>
</svg>
