<svg width="19" height="20" viewBox="0 0 19 20" fill="none" xmlns="http://www.w3.org/2000/svg">
<path fill-rule="evenodd" clip-rule="evenodd" d="M7.16204 1.24321C7.28384 0.53713 7.89924 0 8.64014 0H9.64014C10.381 0 10.9964 0.53713 11.1182 1.24321C12.5989 1.61443 13.8974 2.39478 14.6576 3.47462C15.7096 4.96914 16.1401 6.94772 16.1401 9V11C16.1401 11.8028 16.2316 12.3365 16.3989 12.6465C16.4704 12.7791 16.5455 12.8506 16.6255 12.8964C16.7093 12.9444 16.862 13 17.1401 13C17.6924 13 18.1401 13.4477 18.1401 14C18.1401 14.5523 17.6924 15 17.1401 15H1.14014C0.587857 15 0.140137 14.5523 0.140137 14C0.140137 13.4477 0.587857 13 1.14014 13C1.41824 13 1.5709 12.9444 1.65478 12.8964C1.73478 12.8506 1.80986 12.7791 1.88137 12.6465C2.0486 12.3365 2.14014 11.8028 2.14014 11V9C2.14014 6.94772 2.57059 4.96914 3.62269 3.47462C4.38285 2.39478 5.68135 1.61443 7.16204 1.24321ZM9.14014 3C7.14014 3 5.95532 3.63546 5.2581 4.62589C4.52669 5.66487 4.14014 7.18629 4.14014 9V11C4.14014 11.6462 4.09433 12.3565 3.89079 13H14.3895C14.1859 12.3565 14.1401 11.6462 14.1401 11V9C14.1401 7.18629 13.7536 5.66487 13.0221 4.62589C12.3249 3.63546 11.1401 3 9.14014 3ZM6.14546 18.5018L5.14014 17H13.1401L12.1348 18.5018C11.5154 19.427 10.3744 19.9965 9.14014 19.9965C7.90584 19.9965 6.76482 19.427 6.14546 18.5018Z" fill="#181818"/>
</svg>
