<svg width="10" height="11" viewBox="0 0 10 11" fill="none" xmlns="http://www.w3.org/2000/svg">
<path fill-rule="evenodd" clip-rule="evenodd" d="M1.71929 1.23286C1.53069 1.0507 1.27808 0.949908 1.01589 0.952186C0.75369 0.954465 0.502878 1.05963 0.31747 1.24504C0.132062 1.43045 0.0268924 1.68126 0.024614 1.94346C0.0223356 2.20566 0.12313 2.45826 0.305288 2.64686L3.59829 5.93986L0.305288 9.23286C0.209778 9.32511 0.133596 9.43545 0.0811869 9.55746C0.0287779 9.67946 0.00119157 9.81068 3.7757e-05 9.94346C-0.00111606 10.0762 0.0241855 10.2079 0.0744664 10.3308C0.124747 10.4537 0.199 10.5654 0.292893 10.6593C0.386786 10.7531 0.498438 10.8274 0.621334 10.8777C0.74423 10.928 0.87591 10.9533 1.00869 10.9521C1.14147 10.951 1.27269 10.9234 1.39469 10.871C1.5167 10.8186 1.62704 10.7424 1.71929 10.6469L5.01229 7.35386L8.30529 10.6469C8.49389 10.829 8.74649 10.9298 9.00869 10.9275C9.27089 10.9253 9.5217 10.8201 9.70711 10.6347C9.89251 10.4493 9.99768 10.1985 9.99996 9.93626C10.0022 9.67406 9.90145 9.42146 9.71929 9.23286L6.42629 5.93986L9.71929 2.64686C9.90145 2.45826 10.0022 2.20566 9.99996 1.94346C9.99768 1.68126 9.89251 1.43045 9.70711 1.24504C9.5217 1.05963 9.27089 0.954465 9.00869 0.952186C8.74649 0.949908 8.49389 1.0507 8.30529 1.23286L5.01229 4.52586L1.71929 1.23286Z" fill="black" fill-opacity="0.8"/>
</svg>
