<svg width="19" height="19" viewBox="0 0 19 19" fill="none" xmlns="http://www.w3.org/2000/svg">
<path fill-rule="evenodd" clip-rule="evenodd" d="M15.3 14L18.7 17.3C18.8444 17.4925 18.9145 17.7307 18.8974 17.9708C18.8804 18.211 18.7773 18.4368 18.6071 18.6071C18.4368 18.7773 18.211 18.8804 17.9708 18.8974C17.7307 18.9145 17.4925 18.8444 17.3 18.7L13.9 15.3C12.2933 16.5503 10.2704 17.1411 8.24328 16.952C6.2162 16.7628 4.3375 15.8079 2.98993 14.2819C1.64235 12.7558 0.92729 10.7734 0.990423 8.73849C1.05356 6.70359 1.89014 4.76931 3.32972 3.32972C4.76931 1.89014 6.70359 1.05356 8.73849 0.990423C10.7734 0.92729 12.7558 1.64235 14.2819 2.98993C15.8079 4.3375 16.7628 6.2162 16.952 8.24328C17.1411 10.2704 16.5503 12.2933 15.3 13.9V14ZM8.99995 15C9.78788 15 10.5681 14.8448 11.2961 14.5432C12.024 14.2417 12.6854 13.7997 13.2426 13.2426C13.7997 12.6854 14.2417 12.024 14.5432 11.2961C14.8448 10.5681 15 9.78788 15 8.99995C15 8.21202 14.8448 7.43181 14.5432 6.70385C14.2417 5.9759 13.7997 5.31446 13.2426 4.75731C12.6854 4.20016 12.024 3.7582 11.2961 3.45668C10.5681 3.15515 9.78788 2.99995 8.99995 2.99995C7.40865 2.99995 5.88253 3.63209 4.75731 4.75731C3.63209 5.88253 2.99995 7.40865 2.99995 8.99995C2.99995 10.5913 3.63209 12.1174 4.75731 13.2426C5.88253 14.3678 7.40865 15 8.99995 15Z" fill="#5B5B5B"/>
</svg>
