<svg width="16" height="16" viewBox="0 0 16 16" fill="none" xmlns="http://www.w3.org/2000/svg">
<path opacity="0.2" d="M8.27451 11.9188L11.4245 13.9188C11.8308 14.175 12.3308 13.7938 12.212 13.325L11.2995 9.73752C11.2748 9.63808 11.2788 9.53369 11.3108 9.43638C11.3429 9.33907 11.4018 9.2528 11.4808 9.18752L14.3058 6.83127C14.6745 6.52502 14.487 5.90627 14.0058 5.87502L10.3183 5.63752C10.2176 5.63166 10.1209 5.59663 10.0399 5.53669C9.95887 5.47675 9.89705 5.39451 9.86201 5.30002L8.48701 1.83752C8.45061 1.73745 8.38431 1.65102 8.29709 1.58994C8.20988 1.52886 8.10598 1.49609 7.99951 1.49609C7.89303 1.49609 7.78914 1.52886 7.70193 1.58994C7.61471 1.65102 7.54841 1.73745 7.51201 1.83752L6.13701 5.30002C6.10197 5.39451 6.04015 5.47675 5.95913 5.53669C5.8781 5.59663 5.78137 5.63166 5.68076 5.63752L1.99326 5.87502C1.51201 5.90627 1.32451 6.52502 1.69326 6.83127L4.51826 9.18752C4.59722 9.2528 4.65613 9.33907 4.68819 9.43638C4.72026 9.53369 4.72418 9.63808 4.69951 9.73752L3.85576 13.0625C3.71201 13.625 4.31201 14.0813 4.79326 13.775L7.72451 11.9188C7.80671 11.8665 7.9021 11.8387 7.99951 11.8387C8.09692 11.8387 8.19231 11.8665 8.27451 11.9188V11.9188Z" fill="#F1F0EB"/>
<path d="M8.27451 11.9188L11.4245 13.9188C11.8308 14.175 12.3308 13.7938 12.212 13.325L11.2995 9.73752C11.2748 9.63808 11.2788 9.53369 11.3108 9.43638C11.3429 9.33907 11.4018 9.2528 11.4808 9.18752L14.3058 6.83127C14.6745 6.52502 14.487 5.90627 14.0058 5.87502L10.3183 5.63752C10.2176 5.63166 10.1209 5.59663 10.0399 5.53669C9.95887 5.47675 9.89705 5.39451 9.86201 5.30002L8.48701 1.83752C8.45061 1.73745 8.38431 1.65102 8.29709 1.58994C8.20988 1.52886 8.10598 1.49609 7.99951 1.49609C7.89303 1.49609 7.78914 1.52886 7.70193 1.58994C7.61471 1.65102 7.54841 1.73745 7.51201 1.83752L6.13701 5.30002C6.10197 5.39451 6.04015 5.47675 5.95913 5.53669C5.8781 5.59663 5.78137 5.63166 5.68076 5.63752L1.99326 5.87502C1.51201 5.90627 1.32451 6.52502 1.69326 6.83127L4.51826 9.18752C4.59722 9.2528 4.65613 9.33907 4.68819 9.43638C4.72026 9.53369 4.72418 9.63808 4.69951 9.73752L3.85576 13.0625C3.71201 13.625 4.31201 14.0813 4.79326 13.775L7.72451 11.9188C7.80671 11.8665 7.9021 11.8387 7.99951 11.8387C8.09692 11.8387 8.19231 11.8665 8.27451 11.9188V11.9188Z" stroke="#2A2630" stroke-linecap="round" stroke-linejoin="round"/>
</svg>
