<svg width="24" height="24" viewBox="0 0 24 24" fill="none" xmlns="http://www.w3.org/2000/svg">
<path d="M12.1625 18.6329L16.8871 21.6327C17.4964 22.017 18.2464 21.4452 18.0683 20.7421L16.6996 15.3612C16.6626 15.2121 16.6685 15.0555 16.7166 14.9096C16.7647 14.7636 16.8531 14.6342 16.9715 14.5363L21.2087 11.0022C21.7618 10.5428 21.4805 9.61478 20.7587 9.56791L15.2279 9.21168C15.077 9.2029 14.9319 9.15035 14.8103 9.06045C14.6888 8.97055 14.5961 8.8472 14.5435 8.70547L12.4812 3.5121C12.4266 3.36202 12.3272 3.23237 12.1963 3.14076C12.0655 3.04914 11.9097 3 11.75 3C11.5903 3 11.4345 3.04914 11.3037 3.14076C11.1728 3.23237 11.0734 3.36202 11.0188 3.5121L8.95646 8.70547C8.9039 8.8472 8.81119 8.97055 8.68966 9.06045C8.56813 9.15035 8.42304 9.2029 8.27213 9.21168L2.7413 9.56791C2.01948 9.61478 1.73825 10.5428 2.29133 11.0022L6.52852 14.5363C6.64695 14.6342 6.7353 14.7636 6.7834 14.9096C6.83149 15.0555 6.83738 15.2121 6.80037 15.3612L5.53484 20.3484C5.31923 21.1921 6.21916 21.8764 6.94098 21.417L11.3375 18.6329C11.4608 18.5545 11.6039 18.5128 11.75 18.5128C11.8961 18.5128 12.0392 18.5545 12.1625 18.6329V18.6329Z" stroke="#2A2630" stroke-width="1.49989" stroke-linecap="round" stroke-linejoin="round"/>
</svg>
