<svg width="24" height="24" viewBox="0 0 24 24" fill="none" xmlns="http://www.w3.org/2000/svg">
<path d="M12.4123 17.8786L17.1373 20.8786C17.7466 21.263 18.4966 20.6911 18.3185 19.988L16.9498 14.6068C16.9127 14.4576 16.9186 14.301 16.9667 14.1551C17.0148 14.0091 17.1032 13.8797 17.2216 13.7818L21.4591 10.2474C22.0123 9.78801 21.731 8.85989 21.0091 8.81301L15.4779 8.45676C15.327 8.44798 15.1819 8.39543 15.0603 8.30552C14.9388 8.21562 14.8461 8.09226 14.7935 7.95051L12.731 2.75676C12.6764 2.60667 12.5769 2.47701 12.4461 2.38539C12.3153 2.29377 12.1595 2.24463 11.9998 2.24463C11.84 2.24463 11.6842 2.29377 11.5534 2.38539C11.4226 2.47701 11.3231 2.60667 11.2685 2.75676L9.206 7.95051C9.15344 8.09226 9.06072 8.21562 8.93918 8.30552C8.81764 8.39543 8.67255 8.44798 8.52163 8.45676L2.99038 8.81301C2.2685 8.85989 1.98725 9.78801 2.54038 10.2474L6.77788 13.7818C6.89632 13.8797 6.98468 14.0091 7.03278 14.1551C7.08088 14.301 7.08676 14.4576 7.04975 14.6068L5.78413 19.5943C5.5685 20.438 6.4685 21.1224 7.19038 20.663L11.5873 17.8786C11.7105 17.8002 11.8536 17.7586 11.9998 17.7586C12.1459 17.7586 12.289 17.8002 12.4123 17.8786V17.8786Z" fill="#F1F0EB" fill-opacity="0.64"/>
<path d="M12.4123 17.8786L17.1373 20.8786C17.7466 21.263 18.4966 20.6911 18.3185 19.988L16.9498 14.6068C16.9127 14.4576 16.9186 14.301 16.9667 14.1551C17.0148 14.0091 17.1032 13.8797 17.2216 13.7818L21.4591 10.2474C22.0123 9.78801 21.731 8.85989 21.0091 8.81301L15.4779 8.45676C15.327 8.44798 15.1819 8.39543 15.0603 8.30552C14.9388 8.21562 14.8461 8.09226 14.7935 7.95051L12.731 2.75676C12.6764 2.60667 12.5769 2.47701 12.4461 2.38539C12.3153 2.29377 12.1595 2.24463 11.9998 2.24463C11.84 2.24463 11.6842 2.29377 11.5534 2.38539C11.4226 2.47701 11.3231 2.60667 11.2685 2.75676L9.206 7.95051C9.15344 8.09226 9.06072 8.21562 8.93918 8.30552C8.81764 8.39543 8.67255 8.44798 8.52163 8.45676L2.99038 8.81301C2.2685 8.85989 1.98725 9.78801 2.54038 10.2474L6.77788 13.7818C6.89632 13.8797 6.98468 14.0091 7.03278 14.1551C7.08088 14.301 7.08676 14.4576 7.04975 14.6068L5.78413 19.5943C5.5685 20.438 6.4685 21.1224 7.19038 20.663L11.5873 17.8786C11.7105 17.8002 11.8536 17.7586 11.9998 17.7586C12.1459 17.7586 12.289 17.8002 12.4123 17.8786V17.8786Z" stroke="#2A2630" stroke-width="1.5" stroke-linecap="round" stroke-linejoin="round"/>
</svg>
