<svg width="33" height="33" viewBox="0 0 33 33" fill="none" xmlns="http://www.w3.org/2000/svg">
<path fill-rule="evenodd" clip-rule="evenodd" d="M20.2652 20.7714C20.7363 20.3214 21.3674 20.0424 22.0697 20.0424C23.5452 20.0424 24.7363 21.2484 24.7363 22.7424C24.7363 24.2364 23.5452 25.4424 22.0697 25.4424C20.5941 25.4424 19.403 24.2364 19.403 22.7424C19.403 22.5264 19.4386 22.3194 19.483 22.1214L13.2163 18.4134C12.7363 18.8634 12.1052 19.1424 11.403 19.1424C9.92744 19.1424 8.73633 17.9364 8.73633 16.4424C8.73633 14.9484 9.92744 13.7424 11.403 13.7424C12.1052 13.7424 12.7363 14.0214 13.2163 14.4714L19.483 10.7724C19.4386 10.5744 19.403 10.3584 19.403 10.1424C19.403 8.64838 20.5941 7.44238 22.0697 7.44238C23.5452 7.44238 24.7363 8.64838 24.7363 10.1424C24.7363 11.6364 23.5452 12.8424 22.0697 12.8424C21.3674 12.8424 20.7274 12.5634 20.2563 12.1134L13.9897 15.8124C14.0341 16.0194 14.0697 16.2264 14.0697 16.4424C14.0697 16.6584 14.0341 16.8654 13.9897 17.0724L20.2652 20.7714ZM22.9608 10.1427C22.9608 9.64768 22.5608 9.24268 22.0719 9.24268C21.583 9.24268 21.183 9.64768 21.183 10.1427C21.183 10.6377 21.583 11.0427 22.0719 11.0427C22.5608 11.0427 22.9608 10.6377 22.9608 10.1427ZM11.403 17.343C10.9141 17.343 10.5141 16.938 10.5141 16.443C10.5141 15.948 10.9141 15.543 11.403 15.543C11.8919 15.543 12.2919 15.948 12.2919 16.443C12.2919 16.938 11.8919 17.343 11.403 17.343ZM21.183 22.7423C21.183 23.2373 21.583 23.6423 22.0719 23.6423C22.5608 23.6423 22.9608 23.2373 22.9608 22.7423C22.9608 22.2473 22.5608 21.8423 22.0719 21.8423C21.583 21.8423 21.183 22.2473 21.183 22.7423Z" fill="#000624"/>
</svg>
